<mxfile host="app.diagrams.net" modified="2020-09-11T02:39:14.197Z" agent="5.0 (Windows NT 10.0; Win64; x64) AppleWebKit/537.36 (KHTML, like Gecko) Chrome/85.0.4183.102 Safari/537.36" etag="a26wWB45KE3ZO1JruHjS" version="13.6.9" type="github">
  <diagram id="C5RBs43oDa-KdzZeNtuy" name="Page-1">
    <mxGraphModel dx="1928" dy="723" grid="1" gridSize="10" guides="1" tooltips="1" connect="1" arrows="1" fold="1" page="1" pageScale="1" pageWidth="827" pageHeight="1169" math="0" shadow="0">
      <root>
        <mxCell id="WIyWlLk6GJQsqaUBKTNV-0" />
        <mxCell id="WIyWlLk6GJQsqaUBKTNV-1" parent="WIyWlLk6GJQsqaUBKTNV-0" />
        <mxCell id="5BxzUbeMujvAWOUuop8R-0" value="&lt;b&gt;Conv1D&lt;br&gt;&lt;/b&gt;&lt;font style=&quot;font-size: 14px&quot;&gt;Para=(nf, n)&lt;/font&gt;" style="rounded=0;whiteSpace=wrap;html=1;fillColor=#f8cecc;strokeColor=#b85450;align=left;verticalAlign=top;" vertex="1" parent="WIyWlLk6GJQsqaUBKTNV-1">
          <mxGeometry x="-810" y="80" width="300" height="230" as="geometry" />
        </mxCell>
        <mxCell id="5BxzUbeMujvAWOUuop8R-67" style="edgeStyle=orthogonalEdgeStyle;rounded=1;orthogonalLoop=1;jettySize=auto;html=1;entryX=1;entryY=0.5;entryDx=0;entryDy=0;" edge="1" parent="WIyWlLk6GJQsqaUBKTNV-1" source="5BxzUbeMujvAWOUuop8R-1" target="5BxzUbeMujvAWOUuop8R-6">
          <mxGeometry relative="1" as="geometry" />
        </mxCell>
        <mxCell id="5BxzUbeMujvAWOUuop8R-1" value="&lt;b&gt;W&lt;br&gt;&lt;/b&gt;Weight&lt;br&gt;dim(n, nf)" style="rounded=0;whiteSpace=wrap;html=1;fillColor=#d5e8d4;strokeColor=#82b366;" vertex="1" parent="WIyWlLk6GJQsqaUBKTNV-1">
          <mxGeometry x="-600" y="130" width="80" height="60" as="geometry" />
        </mxCell>
        <mxCell id="5BxzUbeMujvAWOUuop8R-66" style="edgeStyle=orthogonalEdgeStyle;rounded=1;orthogonalLoop=1;jettySize=auto;html=1;entryX=0;entryY=0.5;entryDx=0;entryDy=0;" edge="1" parent="WIyWlLk6GJQsqaUBKTNV-1" source="5BxzUbeMujvAWOUuop8R-2" target="5BxzUbeMujvAWOUuop8R-6">
          <mxGeometry relative="1" as="geometry" />
        </mxCell>
        <mxCell id="5BxzUbeMujvAWOUuop8R-2" value="&lt;b&gt;B&lt;br&gt;&lt;/b&gt;Bias&lt;br&gt;dim(1, nf)" style="rounded=0;whiteSpace=wrap;html=1;fillColor=#d5e8d4;strokeColor=#82b366;" vertex="1" parent="WIyWlLk6GJQsqaUBKTNV-1">
          <mxGeometry x="-800" y="130" width="80" height="60" as="geometry" />
        </mxCell>
        <mxCell id="5BxzUbeMujvAWOUuop8R-3" value="&lt;b&gt;X&lt;br&gt;&lt;/b&gt;Input&lt;br&gt;dim(b, s, n)" style="rounded=1;whiteSpace=wrap;html=1;labelBackgroundColor=none;fillColor=#dae8fc;strokeColor=#6c8ebf;" vertex="1" parent="WIyWlLk6GJQsqaUBKTNV-1">
          <mxGeometry x="-720" y="10" width="120" height="60" as="geometry" />
        </mxCell>
        <mxCell id="5BxzUbeMujvAWOUuop8R-6" value="&lt;b&gt;O&#39;&lt;/b&gt; = &lt;b&gt;B&lt;/b&gt; + &lt;b&gt;X&#39;W&lt;/b&gt;&lt;br&gt;dim(b*s, nf)" style="rounded=0;whiteSpace=wrap;html=1;" vertex="1" parent="WIyWlLk6GJQsqaUBKTNV-1">
          <mxGeometry x="-720" y="210" width="120" height="60" as="geometry" />
        </mxCell>
        <mxCell id="5BxzUbeMujvAWOUuop8R-44" value="" style="endArrow=classic;html=1;exitX=0.5;exitY=1;exitDx=0;exitDy=0;entryX=0.5;entryY=0;entryDx=0;entryDy=0;edgeStyle=orthogonalEdgeStyle;" edge="1" parent="WIyWlLk6GJQsqaUBKTNV-1" source="5BxzUbeMujvAWOUuop8R-3" target="5BxzUbeMujvAWOUuop8R-4">
          <mxGeometry relative="1" as="geometry">
            <mxPoint x="-780" y="230" as="sourcePoint" />
            <mxPoint x="-760" y="260" as="targetPoint" />
          </mxGeometry>
        </mxCell>
        <mxCell id="5BxzUbeMujvAWOUuop8R-45" value="reshape" style="edgeLabel;resizable=0;html=1;align=center;verticalAlign=middle;" connectable="0" vertex="1" parent="5BxzUbeMujvAWOUuop8R-44">
          <mxGeometry relative="1" as="geometry" />
        </mxCell>
        <mxCell id="5BxzUbeMujvAWOUuop8R-49" value="&lt;b&gt;O&lt;/b&gt;&lt;br&gt;Output&lt;br&gt;dim(b, s, nf)" style="rounded=1;whiteSpace=wrap;html=1;shadow=0;glass=0;labelBackgroundColor=none;sketch=0;fillColor=#dae8fc;strokeColor=#6c8ebf;" vertex="1" parent="WIyWlLk6GJQsqaUBKTNV-1">
          <mxGeometry x="-720" y="330" width="120" height="60" as="geometry" />
        </mxCell>
        <mxCell id="5BxzUbeMujvAWOUuop8R-50" value="" style="endArrow=classic;html=1;exitX=0.5;exitY=1;exitDx=0;exitDy=0;entryX=0.5;entryY=0;entryDx=0;entryDy=0;" edge="1" parent="WIyWlLk6GJQsqaUBKTNV-1" source="5BxzUbeMujvAWOUuop8R-6" target="5BxzUbeMujvAWOUuop8R-49">
          <mxGeometry relative="1" as="geometry">
            <mxPoint x="-780" y="230" as="sourcePoint" />
            <mxPoint x="-780" y="290" as="targetPoint" />
          </mxGeometry>
        </mxCell>
        <mxCell id="5BxzUbeMujvAWOUuop8R-51" value="reshape" style="edgeLabel;resizable=0;html=1;align=center;verticalAlign=middle;" connectable="0" vertex="1" parent="5BxzUbeMujvAWOUuop8R-50">
          <mxGeometry relative="1" as="geometry">
            <mxPoint y="-5.14" as="offset" />
          </mxGeometry>
        </mxCell>
        <mxCell id="5BxzUbeMujvAWOUuop8R-65" value="" style="edgeStyle=orthogonalEdgeStyle;rounded=1;orthogonalLoop=1;jettySize=auto;html=1;" edge="1" parent="WIyWlLk6GJQsqaUBKTNV-1" source="5BxzUbeMujvAWOUuop8R-4" target="5BxzUbeMujvAWOUuop8R-6">
          <mxGeometry relative="1" as="geometry" />
        </mxCell>
        <mxCell id="5BxzUbeMujvAWOUuop8R-4" value="&lt;b&gt;X&#39;&lt;br&gt;&lt;/b&gt;&lt;span&gt;dim(b*s, n)&lt;/span&gt;&lt;b&gt;&lt;br&gt;&lt;/b&gt;" style="rounded=0;whiteSpace=wrap;html=1;glass=0;shadow=0;sketch=0;" vertex="1" parent="WIyWlLk6GJQsqaUBKTNV-1">
          <mxGeometry x="-700" y="130" width="80" height="60" as="geometry" />
        </mxCell>
      </root>
    </mxGraphModel>
  </diagram>
</mxfile>
